<?xml version="1.0" encoding="iso-8859-1"?>
<!-- Generator: Adobe Illustrator 19.0.0, SVG Export Plug-In . SVG Version: 6.00 Build 0)  -->
<svg version="1.1" id="Layer_1" xmlns="http://www.w3.org/2000/svg" xmlns:xlink="http://www.w3.org/1999/xlink" x="0px" y="0px"
	 viewBox="0 0 298.405 298.405" style="enable-background:new 0 0 298.405 298.405;" xml:space="preserve">
<g id="XMLID_1129_">
	<g>
		<g>
			<path d="M124.782,131.508c0-5.247-4.254-9.501-9.502-9.501H96.451c-0.061-12.226-0.058-11.473-0.122-24.398
				C96.267,85.273,86.18,75.237,73.844,75.237c-9.689,0-41.377,0-51.009,0c-12.336,0-22.423,10.035-22.485,22.372L0,167.412
				c-0.027,5.247,4.206,9.523,9.454,9.549c0.016,0,0.032,0,0.049,0c5.225,0,9.474-4.222,9.5-9.454l0.351-69.803
				c0.005-1.012,0.828-1.828,1.839-1.825c1.011,0.003,1.829,0.824,1.829,1.835v68.578h0.005v91.135
				c0,6.297,5.105,11.402,11.402,11.402c6.297,0,11.402-5.105,11.402-11.402v-91.135h4.923v91.135
				c0,6.297,5.105,11.402,11.402,11.402c6.297,0,11.402-5.105,11.402-11.402c0-0.16-0.2-89.356-0.207-159.71
				c0-1.096,0.887-1.985,1.982-1.988s1.988,0.881,1.995,1.977c0.064,12.776,0.105,20.893,0.17,33.852
				c0.026,5.229,4.272,9.454,9.501,9.454h28.283C120.528,141.01,124.782,136.756,124.782,131.508z"/>
			<path d="M48.42,68.96c10.798,0,19.692-8.752,19.692-19.692c0-10.876-8.816-19.692-19.692-19.692
				c-10.873,0-19.692,8.811-19.692,19.692C28.728,60.144,37.543,68.96,48.42,68.96z"/>
			<path d="M148.852,116.2h-24.765c4.095,2.361,7.155,6.313,8.328,11.016h10.737c2.88,0,5.215,2.335,5.215,5.215
				s-2.335,5.215-5.215,5.215h-11.306c-2.494,6.729-8.969,11.526-16.567,11.526H88.101v110.23c0,5.205,4.22,9.425,9.425,9.425
				h51.325c5.205,0,9.425-4.22,9.425-9.425V125.625h0.001C158.277,120.419,154.057,116.2,148.852,116.2z M123.189,198.945
				c-11.713,0-21.208-9.495-21.208-21.208c0-11.713,9.495-21.208,21.208-21.208c11.713,0,21.208,9.495,21.208,21.208
				C144.398,189.45,134.902,198.945,123.189,198.945z"/>
			<path d="M128.08,166.623c-0.658-0.657-1.724-0.657-2.381,0l-8.822,8.822l-3.127-3.127c-0.386-0.386-0.967-0.502-1.472-0.293
				s-0.834,0.702-0.834,1.248v14.857c0,0.746,0.605,1.351,1.351,1.351h14.857c0.547,0,1.039-0.329,1.248-0.834
				c0.209-0.505,0.094-1.086-0.293-1.472l-3.126-3.126l8.822-8.822c0.658-0.658,0.658-1.724,0-2.381L128.08,166.623z"/>
			<path d="M288.98,116.2h-51.325c-5.205,0-9.425,4.22-9.425,9.425v12.221h-54.566c-3.831,0-6.937,3.105-6.937,6.937
				c0,3.832,3.106,6.937,6.937,6.937h54.566v107.684c0,5.205,4.22,9.425,9.425,9.425h51.325c5.205,0,9.425-4.22,9.425-9.425V125.625
				C298.405,120.419,294.185,116.2,288.98,116.2z M263.317,198.945c-11.713,0-21.208-9.495-21.208-21.208
				c0-11.713,9.495-21.208,21.208-21.208s21.208,9.495,21.208,21.208C284.525,189.45,275.029,198.945,263.317,198.945z
				 M284.324,137.646H242.31c-2.88,0-5.215-2.335-5.215-5.215s2.335-5.215,5.215-5.215h42.014c2.88,0,5.215,2.335,5.215,5.215
				S287.204,137.646,284.324,137.646z"/>
			<path d="M268.208,166.623c-0.658-0.657-1.724-0.657-2.381,0l-8.822,8.822l-3.126-3.127c-0.386-0.386-0.967-0.502-1.472-0.293
				s-0.834,0.702-0.834,1.248v14.857c0,0.746,0.605,1.351,1.351,1.351h14.857c0.547,0,1.039-0.329,1.248-0.834
				c0.209-0.505,0.094-1.086-0.293-1.472l-3.126-3.126l8.822-8.822c0.658-0.658,0.658-1.724,0-2.381L268.208,166.623z"/>
		</g>
	</g>
</g>
<g>
</g>
<g>
</g>
<g>
</g>
<g>
</g>
<g>
</g>
<g>
</g>
<g>
</g>
<g>
</g>
<g>
</g>
<g>
</g>
<g>
</g>
<g>
</g>
<g>
</g>
<g>
</g>
<g>
</g>
</svg>
